{
	"asset":{
		"generator":"Khronos glTF Blender I/O v4.0.44",
		"version":"2.0"
	},
	"scene":0,
	"scenes":[
		{
			"name":"Scene",
			"nodes":[
				8
			]
		}
	],
	"nodes":[
		{
			"mesh":0,
			"name":"Helmet_UV01_low_LowMat_0"
		},
		{
			"children":[
				0
			],
			"name":"Helmet_UV01_low",
			"rotation":[
				-0.70710688829422,
				0,
				0,
				0.7071066498756409
			],
			"scale":[
				100,
				99.99998474121094,
				99.99998474121094
			]
		},
		{
			"mesh":1,
			"name":"Helmet_UV02_low_LowMat_0"
		},
		{
			"children":[
				2
			],
			"name":"Helmet_UV02_low",
			"rotation":[
				-0.70710688829422,
				0,
				0,
				0.7071066498756409
			],
			"scale":[
				100,
				99.99998474121094,
				99.99998474121094
			]
		},
		{
			"mesh":2,
			"name":"Helmet_UV03_low_LowMat_0"
		},
		{
			"children":[
				4
			],
			"name":"Helmet_UV03_low",
			"rotation":[
				-0.70710688829422,
				0,
				0,
				0.7071066498756409
			],
			"scale":[
				100,
				99.99998474121094,
				99.99998474121094
			]
		},
		{
			"children":[
				1,
				3,
				5
			],
			"name":"RootNode"
		},
		{
			"children":[
				6
			],
			"name":"0c6b4c1265364c18ab82f03409b90f7c.fbx",
			"rotation":[
				0.70710688829422,
				0,
				0,
				0.7071066498756409
			],
			"scale":[
				0.009999999776482582,
				0.009999999776482582,
				0.009999999776482582
			]
		},
		{
			"children":[
				7
			],
			"name":"Sketchfab_model",
			"rotation":[
				-0.70710688829422,
				0,
				0,
				0.7071066498756409
			]
		}
	],
	"materials":[
		{
			"alphaCutoff":1,
			"alphaMode":"MASK",
			"doubleSided":true,
			"name":"LowMat.001",
			"pbrMetallicRoughness":{
				"baseColorFactor":[
					0.013360504992306232,
					0.0482105053961277,
					0.7999997735023499,
					1
				],
				"metallicFactor":0,
				"roughnessFactor":0.4000000059604645
			}
		},
		{
			"alphaCutoff":1,
			"alphaMode":"MASK",
			"doubleSided":true,
			"name":"LowMat",
			"normalTexture":{
				"index":0
			},
			"occlusionTexture":{
				"index":1
			},
			"pbrMetallicRoughness":{
				"baseColorTexture":{
					"index":2
				},
				"metallicRoughnessTexture":{
					"index":1
				},
				"roughnessFactor":0.30933427810668945
			}
		}
	],
	"meshes":[
		{
			"name":"Helmet_UV01_low_LowMat_0",
			"primitives":[
				{
					"attributes":{
						"POSITION":0,
						"NORMAL":1,
						"TEXCOORD_0":2
					},
					"indices":3,
					"material":0
				}
			]
		},
		{
			"name":"Helmet_UV02_low_LowMat_0",
			"primitives":[
				{
					"attributes":{
						"POSITION":4,
						"NORMAL":5,
						"TEXCOORD_0":6
					},
					"indices":7,
					"material":1
				}
			]
		},
		{
			"name":"Helmet_UV03_low_LowMat_0",
			"primitives":[
				{
					"attributes":{
						"POSITION":8,
						"NORMAL":9,
						"TEXCOORD_0":10
					},
					"indices":11,
					"material":1
				}
			]
		}
	],
	"textures":[
		{
			"sampler":0,
			"source":0
		},
		{
			"sampler":0,
			"source":1
		},
		{
			"sampler":0,
			"source":2
		}
	],
	"images":[
		{
			"mimeType":"image/png",
			"name":"LowMat_normal",
			"uri":"LowMat_normal.png"
		},
		{
			"mimeType":"image/png",
			"name":"LowMat_metallicRoughness",
			"uri":"LowMat_metallicRoughness.png"
		},
		{
			"mimeType":"image/png",
			"name":"LowMat_baseColor",
			"uri":"LowMat_baseColor.png"
		}
	],
	"accessors":[
		{
			"bufferView":0,
			"componentType":5126,
			"count":6824,
			"max":[
				1.7610853910446167,
				0.2176653891801834,
				2.269973039627075
			],
			"min":[
				-1.7610853910446167,
				-2.592350959777832,
				-2.123462677001953
			],
			"type":"VEC3"
		},
		{
			"bufferView":1,
			"componentType":5126,
			"count":6824,
			"type":"VEC3"
		},
		{
			"bufferView":2,
			"componentType":5126,
			"count":6824,
			"type":"VEC2"
		},
		{
			"bufferView":3,
			"componentType":5123,
			"count":24120,
			"type":"SCALAR"
		},
		{
			"bufferView":4,
			"componentType":5126,
			"count":7359,
			"max":[
				1.80171537399292,
				-0.00661829486489296,
				2.0545976161956787
			],
			"min":[
				-1.80171537399292,
				-2.3609468936920166,
				-1.8177636861801147
			],
			"type":"VEC3"
		},
		{
			"bufferView":5,
			"componentType":5126,
			"count":7359,
			"type":"VEC3"
		},
		{
			"bufferView":6,
			"componentType":5126,
			"count":7359,
			"type":"VEC2"
		},
		{
			"bufferView":7,
			"componentType":5123,
			"count":27414,
			"type":"SCALAR"
		},
		{
			"bufferView":8,
			"componentType":5126,
			"count":5907,
			"max":[
				1.8219187259674072,
				0.1321749985218048,
				2.0122923851013184
			],
			"min":[
				-1.8219187259674072,
				-2.704779863357544,
				-2.0968329906463623
			],
			"type":"VEC3"
		},
		{
			"bufferView":9,
			"componentType":5126,
			"count":5907,
			"type":"VEC3"
		},
		{
			"bufferView":10,
			"componentType":5126,
			"count":5907,
			"type":"VEC2"
		},
		{
			"bufferView":11,
			"componentType":5123,
			"count":24468,
			"type":"SCALAR"
		}
	],
	"bufferViews":[
		{
			"buffer":0,
			"byteLength":81888,
			"byteOffset":0,
			"target":34962
		},
		{
			"buffer":0,
			"byteLength":81888,
			"byteOffset":81888,
			"target":34962
		},
		{
			"buffer":0,
			"byteLength":54592,
			"byteOffset":163776,
			"target":34962
		},
		{
			"buffer":0,
			"byteLength":48240,
			"byteOffset":218368,
			"target":34963
		},
		{
			"buffer":0,
			"byteLength":88308,
			"byteOffset":266608,
			"target":34962
		},
		{
			"buffer":0,
			"byteLength":88308,
			"byteOffset":354916,
			"target":34962
		},
		{
			"buffer":0,
			"byteLength":58872,
			"byteOffset":443224,
			"target":34962
		},
		{
			"buffer":0,
			"byteLength":54828,
			"byteOffset":502096,
			"target":34963
		},
		{
			"buffer":0,
			"byteLength":70884,
			"byteOffset":556924,
			"target":34962
		},
		{
			"buffer":0,
			"byteLength":70884,
			"byteOffset":627808,
			"target":34962
		},
		{
			"buffer":0,
			"byteLength":47256,
			"byteOffset":698692,
			"target":34962
		},
		{
			"buffer":0,
			"byteLength":48936,
			"byteOffset":745948,
			"target":34963
		}
	],
	"samplers":[
		{
			"magFilter":9729,
			"minFilter":9987
		}
	],
	"buffers":[
		{
			"byteLength":794884,
			"uri":"greenscene.bin"
		}
	]
}
