{
	"asset":{
		"generator":"Khronos glTF Blender I/O v4.0.44",
		"version":"2.0"
	},
	"scene":0,
	"scenes":[
		{
			"name":"Scene",
			"nodes":[
				0,
				1,
				2
			]
		}
	],
	"nodes":[
		{
			"mesh":0,
			"name":"Chapeau",
			"rotation":[
				0.70710688829422,
				0,
				0,
				0.7071066498756409
			]
		},
		{
			"mesh":1,
			"name":"Sphere002",
			"rotation":[
				0.70710688829422,
				0,
				0,
				0.7071066498756409
			]
		},
		{
			"mesh":2,
			"name":"Cube"
		}
	],
	"materials":[
		{
			"doubleSided":true,
			"name":"02___Default.001",
			"pbrMetallicRoughness":{
				"baseColorFactor":[
					0.5882350206375122,
					0.5882350206375122,
					0.5882350206375122,
					1
				],
				"metallicFactor":0,
				"roughnessFactor":0.5
			}
		},
		{
			"doubleSided":true,
			"name":"02___Default",
			"pbrMetallicRoughness":{
				"baseColorFactor":[
					0.5882350206375122,
					0.5882350206375122,
					0.5882350206375122,
					1
				],
				"metallicFactor":0,
				"roughnessFactor":0.5
			}
		},
		{
			"doubleSided":true,
			"name":"Material",
			"pbrMetallicRoughness":{
				"baseColorFactor":[
					0.800000011920929,
					0.800000011920929,
					0.800000011920929,
					1
				],
				"metallicFactor":0,
				"roughnessFactor":0.5
			}
		}
	],
	"meshes":[
		{
			"name":"Chapeau",
			"primitives":[
				{
					"attributes":{
						"POSITION":0,
						"NORMAL":1,
						"TEXCOORD_0":2
					},
					"indices":3,
					"material":0
				}
			]
		},
		{
			"name":"Sphere002",
			"primitives":[
				{
					"attributes":{
						"POSITION":4,
						"NORMAL":5,
						"TEXCOORD_0":6
					},
					"indices":7,
					"material":1
				}
			]
		},
		{
			"name":"Cube",
			"primitives":[
				{
					"attributes":{
						"POSITION":8,
						"NORMAL":9
					},
					"indices":10,
					"material":2
				}
			]
		}
	],
	"accessors":[
		{
			"bufferView":0,
			"componentType":5126,
			"count":4179,
			"max":[
				1.116724967956543,
				1.1130379438400269,
				0.07475700229406357
			],
			"min":[
				-1.1228580474853516,
				-1.1131550073623657,
				-0.701882004737854
			],
			"type":"VEC3"
		},
		{
			"bufferView":1,
			"componentType":5126,
			"count":4179,
			"type":"VEC3"
		},
		{
			"bufferView":2,
			"componentType":5126,
			"count":4179,
			"type":"VEC2"
		},
		{
			"bufferView":3,
			"componentType":5123,
			"count":24192,
			"type":"SCALAR"
		},
		{
			"bufferView":4,
			"componentType":5126,
			"count":4179,
			"max":[
				1.1130379438400269,
				1.1130379438400269,
				0.05713700130581856
			],
			"min":[
				-1.1130379438400269,
				-1.1130379438400269,
				-0.7022320032119751
			],
			"type":"VEC3"
		},
		{
			"bufferView":5,
			"componentType":5126,
			"count":4179,
			"type":"VEC3"
		},
		{
			"bufferView":6,
			"componentType":5126,
			"count":4179,
			"type":"VEC2"
		},
		{
			"bufferView":7,
			"componentType":5123,
			"count":24192,
			"type":"SCALAR"
		},
		{
			"bufferView":8,
			"componentType":5126,
			"count":24,
			"max":[
				1.0000004768371582,
				1,
				1.0000005960464478
			],
			"min":[
				-1.0000003576278687,
				-1,
				-1.0000003576278687
			],
			"type":"VEC3"
		},
		{
			"bufferView":9,
			"componentType":5126,
			"count":24,
			"type":"VEC3"
		},
		{
			"bufferView":10,
			"componentType":5123,
			"count":36,
			"type":"SCALAR"
		}
	],
	"bufferViews":[
		{
			"buffer":0,
			"byteLength":50148,
			"byteOffset":0,
			"target":34962
		},
		{
			"buffer":0,
			"byteLength":50148,
			"byteOffset":50148,
			"target":34962
		},
		{
			"buffer":0,
			"byteLength":33432,
			"byteOffset":100296,
			"target":34962
		},
		{
			"buffer":0,
			"byteLength":48384,
			"byteOffset":133728,
			"target":34963
		},
		{
			"buffer":0,
			"byteLength":50148,
			"byteOffset":182112,
			"target":34962
		},
		{
			"buffer":0,
			"byteLength":50148,
			"byteOffset":232260,
			"target":34962
		},
		{
			"buffer":0,
			"byteLength":33432,
			"byteOffset":282408,
			"target":34962
		},
		{
			"buffer":0,
			"byteLength":48384,
			"byteOffset":315840,
			"target":34963
		},
		{
			"buffer":0,
			"byteLength":288,
			"byteOffset":364224,
			"target":34962
		},
		{
			"buffer":0,
			"byteLength":288,
			"byteOffset":364512,
			"target":34962
		},
		{
			"buffer":0,
			"byteLength":72,
			"byteOffset":364800,
			"target":34963
		}
	],
	"buffers":[
		{
			"byteLength":364872,
			"uri":"luffys_hat.bin"
		}
	]
}
