{
  "accessors": [
    {
      "bufferView": 2,
      "componentType": 5126,
      "count": 9687,
      "max": [
        1.80171537399292,
        1.7888224124908447,
        2.0545976161956787
      ],
      "min": [
        -1.80171537399292,
        -2.3609468936920166,
        -1.8177636861801147
      ],
      "type": "VEC3"
    },
    {
      "bufferView": 2,
      "byteOffset": 116244,
      "componentType": 5126,
      "count": 9687,
      "max": [
        0.9999776482582092,
        1.0,
        0.9996270537376404
      ],
      "min": [
        -0.9999776482582092,
        -0.9998736381530762,
        -1.0
      ],
      "type": "VEC3"
    },
    {
      "bufferView": 3,
      "componentType": 5126,
      "count": 9687,
      "max": [
        1.0,
        0.9999240636825562,
        0.9996310472488403,
        1.0
      ],
      "min": [
        -1.0,
        -0.9998996257781982,
        -0.9995011687278748,
        1.0
      ],
      "type": "VEC4"
    },
    {
      "bufferView": 1,
      "componentType": 5126,
      "count": 9687,
      "max": [
        0.9955025911331177,
        0.99609375
      ],
      "min": [
        0.00390625,
        0.00390625
      ],
      "type": "VEC2"
    },
    {
      "bufferView": 0,
      "componentType": 5125,
      "count": 37452,
      "type": "SCALAR"
    },
    {
      "bufferView": 2,
      "byteOffset": 232488,
      "componentType": 5126,
      "count": 8925,
      "max": [
        1.7610853910446167,
        2.0196244716644287,
        2.269973039627075
      ],
      "min": [
        -1.7610853910446167,
        -2.592350959777832,
        -2.123462677001953
      ],
      "type": "VEC3"
    },
    {
      "bufferView": 2,
      "byteOffset": 339588,
      "componentType": 5126,
      "count": 8925,
      "max": [
        0.9993731379508972,
        0.9999880194664001,
        1.0
      ],
      "min": [
        -0.9993730187416077,
        -0.9999886751174927,
        -1.0
      ],
      "type": "VEC3"
    },
    {
      "bufferView": 3,
      "byteOffset": 154992,
      "componentType": 5126,
      "count": 8925,
      "max": [
        1.0,
        0.9940834045410156,
        0.9997764229774475,
        1.0
      ],
      "min": [
        -1.0,
        -0.9999796152114868,
        -0.999767005443573,
        -1.0
      ],
      "type": "VEC4"
    },
    {
      "bufferView": 1,
      "byteOffset": 77496,
      "componentType": 5126,
      "count": 8925,
      "max": [
        0.995520830154419,
        0.9949578046798706
      ],
      "min": [
        0.00390625,
        0.00390625
      ],
      "type": "VEC2"
    },
    {
      "bufferView": 0,
      "byteOffset": 149808,
      "componentType": 5125,
      "count": 34200,
      "type": "SCALAR"
    },
    {
      "bufferView": 2,
      "byteOffset": 446688,
      "componentType": 5126,
      "count": 7782,
      "max": [
        1.8219187259674072,
        2.0131709575653076,
        2.0122923851013184
      ],
      "min": [
        -1.8219187259674072,
        -2.704779863357544,
        -2.0968329906463623
      ],
      "type": "VEC3"
    },
    {
      "bufferView": 2,
      "byteOffset": 540072,
      "componentType": 5126,
      "count": 7782,
      "max": [
        1.0,
        0.9999936819076538,
        1.0
      ],
      "min": [
        -1.0,
        -0.999994695186615,
        -0.9997768998146057
      ],
      "type": "VEC3"
    },
    {
      "bufferView": 3,
      "byteOffset": 297792,
      "componentType": 5126,
      "count": 7782,
      "max": [
        1.0,
        0.9982700347900391,
        0.9995502829551697,
        1.0
      ],
      "min": [
        -1.0,
        -0.9996874332427979,
        -0.9994308948516846,
        1.0
      ],
      "type": "VEC4"
    },
    {
      "bufferView": 1,
      "byteOffset": 148896,
      "componentType": 5126,
      "count": 7782,
      "max": [
        0.9955206513404846,
        0.9948927760124207
      ],
      "min": [
        0.00390625,
        0.00390625
      ],
      "type": "VEC2"
    },
    {
      "bufferView": 0,
      "byteOffset": 286608,
      "componentType": 5125,
      "count": 33102,
      "type": "SCALAR"
    }
  ],
  "asset": {
    "extras": {
      "author": "Saidrax (https://sketchfab.com/Saidrax)",
      "license": "CC-BY-4.0 (http://creativecommons.org/licenses/by/4.0/)",
      "source": "https://sketchfab.com/3d-models/football-helmet-511c9263ce4f406cb3c144d3a12cb51f",
      "title": "Football Helmet"
    },
    "generator": "Sketchfab-15.42.0",
    "version": "2.0"
  },
  "bufferViews": [
    {
      "buffer": 0,
      "byteLength": 419016,
      "name": "floatBufferViews",
      "target": 34963
    },
    {
      "buffer": 0,
      "byteLength": 211152,
      "byteOffset": 419016,
      "byteStride": 8,
      "name": "floatBufferViews",
      "target": 34962
    },
    {
      "buffer": 0,
      "byteLength": 633456,
      "byteOffset": 630168,
      "byteStride": 12,
      "name": "floatBufferViews",
      "target": 34962
    },
    {
      "buffer": 0,
      "byteLength": 422304,
      "byteOffset": 1263624,
      "byteStride": 16,
      "name": "floatBufferViews",
      "target": 34962
    }
  ],
  "buffers": [
    {
      "byteLength": 1685928,
      "uri": "scene.bin"
    }
  ],
  "images": [
    {
      "uri": "textures/LowMat_baseColor.png"
    },
    {
      "uri": "textures/LowMat_metallicRoughness.png"
    },
    {
      "uri": "textures/LowMat_normal.png"
    }
  ],
  "materials": [
    {
      "alphaCutoff": 1.0,
      "alphaMode": "MASK",
      "doubleSided": true,
      "name": "LowMat",
      "normalTexture": {
        "index": 2
      },
      "occlusionTexture": {
        "index": 1
      },
      "pbrMetallicRoughness": {
        "baseColorTexture": {
          "index": 0
        },
        "metallicRoughnessTexture": {
          "index": 1
        },
        "roughnessFactor": 0.30933427606636515
      }
    }
  ],
  "meshes": [
    {
      "name": "Helmet_UV02_low_LowMat_0",
      "primitives": [
        {
          "attributes": {
            "NORMAL": 1,
            "POSITION": 0,
            "TANGENT": 2,
            "TEXCOORD_0": 3
          },
          "indices": 4,
          "material": 0,
          "mode": 4
        }
      ]
    },
    {
      "name": "Helmet_UV01_low_LowMat_0",
      "primitives": [
        {
          "attributes": {
            "NORMAL": 6,
            "POSITION": 5,
            "TANGENT": 7,
            "TEXCOORD_0": 8
          },
          "indices": 9,
          "material": 0,
          "mode": 4
        }
      ]
    },
    {
      "name": "Helmet_UV03_low_LowMat_0",
      "primitives": [
        {
          "attributes": {
            "NORMAL": 11,
            "POSITION": 10,
            "TANGENT": 12,
            "TEXCOORD_0": 13
          },
          "indices": 14,
          "material": 0,
          "mode": 4
        }
      ]
    }
  ],
  "nodes": [
    {
      "children": [
        1
      ],
      "matrix": [
        1.0,
        0.0,
        0.0,
        0.0,
        0.0,
        2.220446049250313e-16,
        -1.0,
        0.0,
        0.0,
        1.0,
        2.220446049250313e-16,
        0.0,
        0.0,
        0.0,
        0.0,
        1.0
      ],
      "name": "Sketchfab_model"
    },
    {
      "children": [
        2
      ],
      "matrix": [
        0.009999999776482582,
        0.0,
        0.0,
        0.0,
        0.0,
        0.0,
        0.009999999776482582,
        0.0,
        0.0,
        -0.009999999776482582,
        0.0,
        0.0,
        0.0,
        0.0,
        0.0,
        1.0
      ],
      "name": "0c6b4c1265364c18ab82f03409b90f7c.fbx"
    },
    {
      "children": [
        3,
        5,
        7
      ],
      "name": "RootNode"
    },
    {
      "children": [
        4
      ],
      "matrix": [
        100.0,
        0.0,
        0.0,
        0.0,
        0.0,
        -1.629206793918314e-05,
        -99.99999999999868,
        0.0,
        0.0,
        99.99999999999868,
        -1.629206793918314e-05,
        0.0,
        0.0,
        0.0,
        0.0,
        1.0
      ],
      "name": "Helmet_UV02_low"
    },
    {
      "mesh": 0,
      "name": "Helmet_UV02_low_LowMat_0"
    },
    {
      "children": [
        6
      ],
      "matrix": [
        100.0,
        0.0,
        0.0,
        0.0,
        0.0,
        -1.629206793918314e-05,
        -99.99999999999868,
        0.0,
        0.0,
        99.99999999999868,
        -1.629206793918314e-05,
        0.0,
        0.0,
        0.0,
        0.0,
        1.0
      ],
      "name": "Helmet_UV01_low"
    },
    {
      "mesh": 1,
      "name": "Helmet_UV01_low_LowMat_0"
    },
    {
      "children": [
        8
      ],
      "matrix": [
        100.0,
        0.0,
        0.0,
        0.0,
        0.0,
        -1.629206793918314e-05,
        -99.99999999999868,
        0.0,
        0.0,
        99.99999999999868,
        -1.629206793918314e-05,
        0.0,
        0.0,
        0.0,
        0.0,
        1.0
      ],
      "name": "Helmet_UV03_low"
    },
    {
      "mesh": 2,
      "name": "Helmet_UV03_low_LowMat_0"
    }
  ],
  "samplers": [
    {
      "magFilter": 9729,
      "minFilter": 9987,
      "wrapS": 10497,
      "wrapT": 10497
    }
  ],
  "scene": 0,
  "scenes": [
    {
      "name": "Sketchfab_Scene",
      "nodes": [
        0
      ]
    }
  ],
  "textures": [
    {
      "sampler": 0,
      "source": 0
    },
    {
      "sampler": 0,
      "source": 1
    },
    {
      "sampler": 0,
      "source": 2
    }
  ]
}
